# Blender v2.93.2 OBJ File: ''
# www.blender.org
o Círculo.001
v 1.000000 1.461940 -0.191342
v 3.000000 1.490393 -0.097545
v 1.000000 1.490393 -0.097545
v 1.000000 0.509607 -0.097545
v 3.000000 0.538060 -0.191342
v 1.000000 0.538060 -0.191342
v 1.000000 1.353553 0.353553
v 3.000000 1.277785 0.415735
v 1.000000 1.277785 0.415735
v 3.000000 1.500000 0.000000
v 1.000000 1.500000 0.000000
v 3.000000 0.584265 -0.277785
v 1.000000 0.584265 -0.277785
v 3.000000 1.191342 0.461940
v 1.000000 1.191342 0.461940
v 3.000000 0.646447 -0.353553
v 1.000000 0.646447 -0.353553
v 3.000000 1.097545 0.490393
v 1.000000 1.097545 0.490393
v 3.000000 0.722215 -0.415735
v 1.000000 0.722215 -0.415735
v 1.000000 1.000000 0.500000
v 3.000000 1.000000 0.500000
v 3.000000 0.808658 -0.461940
v 1.000000 0.808658 -0.461940
v 3.000000 0.902455 0.490393
v 1.000000 0.902455 0.490393
v 3.000000 0.902455 -0.490393
v 1.000000 0.902455 -0.490393
v 3.000000 0.808658 0.461940
v 1.000000 0.808658 0.461940
v 3.000000 1.000000 -0.500000
v 1.000000 1.000000 -0.500000
v 3.000000 0.722215 0.415735
v 1.000000 0.722215 0.415735
v 3.000000 1.097545 -0.490393
v 1.000000 1.097545 -0.490393
v 3.000000 0.646447 0.353553
v 1.000000 0.646447 0.353553
v 3.000000 1.191342 -0.461940
v 1.000000 1.191342 -0.461940
v 3.000000 0.584265 0.277785
v 1.000000 0.584265 0.277785
v 3.000000 1.277785 -0.415735
v 1.000000 1.277785 -0.415735
v 3.000000 0.538060 0.191342
v 1.000000 0.538060 0.191342
v 3.000000 1.490393 0.097545
v 1.000000 1.490393 0.097545
v 3.000000 1.353553 -0.353554
v 1.000000 1.353553 -0.353553
v 3.000000 0.509607 0.097545
v 1.000000 0.509607 0.097545
v 3.000000 1.461940 0.191342
v 1.000000 1.461940 0.191342
v 3.000000 1.415735 -0.277785
v 1.000000 1.415735 -0.277785
v 3.000000 0.500000 0.000000
v 1.000000 0.500000 0.000000
v 3.000000 1.415735 0.277785
v 1.000000 1.415735 0.277785
v 3.000000 1.461940 -0.191342
v 3.000000 0.509607 -0.097545
v 3.000000 1.353553 0.353553
vt 0.000000 0.000000
vt 0.000000 0.000000
vt 0.000000 0.000000
vt 0.000000 0.000000
vt 0.000000 0.000000
vt 0.000000 0.000000
vt 0.000000 0.000000
vt 0.000000 0.000000
vt 0.000000 0.000000
vt 0.000000 0.000000
vt 0.000000 0.000000
vt 0.000000 0.000000
vt 0.000000 0.000000
vt 0.000000 0.000000
vt 0.000000 0.000000
vt 0.000000 0.000000
vt 0.000000 0.000000
vt 0.000000 0.000000
vt 0.000000 0.000000
vt 0.000000 0.000000
vt 0.000000 0.000000
vt 0.000000 0.000000
vt 0.000000 0.000000
vt 0.000000 0.000000
vt 0.000000 0.000000
vt 0.000000 0.000000
vt 0.000000 0.000000
vt 0.000000 0.000000
vt 0.000000 0.000000
vt 0.000000 0.000000
vt 0.000000 0.000000
vt 0.000000 0.000000
vt 0.000000 0.000000
vt 0.000000 0.000000
vt 0.000000 0.000000
vt 0.000000 0.000000
vt 0.000000 0.000000
vt 0.000000 0.000000
vt 0.000000 0.000000
vt 0.000000 0.000000
vt 0.000000 0.000000
vt 0.000000 0.000000
vt 0.000000 0.000000
vt 0.000000 0.000000
vt 0.000000 0.000000
vt 0.000000 0.000000
vt 0.000000 0.000000
vt 0.000000 0.000000
vt 0.000000 0.000000
vt 0.000000 0.000000
vt 0.000000 0.000000
vt 0.000000 0.000000
vt 0.000000 0.000000
vt 0.000000 0.000000
vt 0.000000 0.000000
vt 0.000000 0.000000
vt 0.000000 0.000000
vt 0.000000 0.000000
vt 0.000000 0.000000
vt 0.000000 0.000000
vt 0.000000 0.000000
vt 0.000000 0.000000
vt 0.000000 0.000000
vt 0.000000 0.000000
vn 0.0000 0.9569 -0.2903
vn 0.0000 -0.9569 -0.2903
vn 0.0000 0.6344 0.7730
vn 0.0000 0.9952 -0.0980
vn 0.0000 -0.8819 -0.4714
vn 0.0000 0.4714 0.8819
vn 0.0000 -0.7730 -0.6344
vn 0.0000 0.2903 0.9569
vn 0.0000 -0.6344 -0.7730
vn 0.0000 0.0980 0.9952
vn 0.6857 -0.0000 0.7279
vn 0.6914 0.1398 0.7088
vn 0.0000 -0.4714 -0.8819
vn 0.0000 -0.0980 0.9952
vn 0.0000 -0.2903 -0.9569
vn 0.0000 -0.2903 0.9569
vn 0.0000 -0.0980 -0.9952
vn 0.0000 -0.4714 0.8819
vn 0.0000 0.0980 -0.9952
vn 0.0000 -0.6344 0.7730
vn 0.0000 0.2903 -0.9569
vn 0.0000 -0.7730 0.6344
vn 0.0000 0.4714 -0.8819
vn 0.0000 -0.8819 0.4714
vn 0.0000 0.9952 0.0980
vn -0.0000 0.6344 -0.7730
vn 0.0000 -0.9569 0.2903
vn 0.0000 0.9569 0.2903
vn 0.0000 0.7730 -0.6344
vn 0.0000 -0.9952 0.0980
vn 0.0000 0.8819 0.4714
vn 0.0000 0.8819 -0.4714
vn 0.0000 -0.9952 -0.0980
vn 0.0000 0.7730 0.6344
vn 0.6914 0.7088 -0.1398
vn 0.6914 0.6679 -0.2755
vn 0.6914 -0.6671 -0.2775
vn 0.6914 -0.7084 -0.1421
vn 0.6914 0.4005 0.6013
vn 0.6914 0.5101 0.5117
vn 0.6914 0.7225 0.0011
vn 0.6914 -0.6001 -0.4023
vn 0.6914 0.2754 0.6679
vn 0.6914 -0.5101 -0.5117
vn 0.6914 -0.4005 -0.6013
vn 0.6914 -0.2754 -0.6679
vn 0.6914 -0.1421 0.7084
vn 0.6914 -0.1398 -0.7088
vn 0.6914 -0.2775 0.6671
vn 0.6914 0.0011 -0.7225
vn 0.6914 -0.4023 0.6001
vn 0.6914 0.1421 -0.7084
vn 0.6914 -0.5117 0.5101
vn 0.6914 0.2775 -0.6671
vn 0.6914 -0.6013 0.4005
vn 0.6914 0.4023 -0.6001
vn 0.6914 -0.6679 0.2755
vn 0.6914 0.7084 0.1421
vn 0.6914 0.5117 -0.5101
vn 0.6914 -0.7088 0.1398
vn 0.6914 0.6671 0.2775
vn 0.6914 0.6013 -0.4005
vn 0.6914 -0.7225 -0.0011
vn 0.6914 0.6001 0.4023
s 1
f 1/1/1 3/2/1 2/3/1
f 4/4/2 6/5/2 5/6/2
f 7/7/3 9/8/3 8/9/3
f 3/2/4 11/10/4 10/11/4
f 6/5/5 13/12/5 12/13/5
f 9/8/6 15/14/6 14/15/6
f 13/12/7 17/16/7 16/17/7
f 15/14/8 19/18/8 18/19/8
f 17/16/9 21/20/9 20/21/9
f 22/22/10 23/23/11 18/19/12
f 21/20/13 25/24/13 24/25/13
f 22/22/14 27/26/14 26/27/14
f 25/24/15 29/28/15 28/29/15
f 27/26/16 31/30/16 30/31/16
f 29/28/17 33/32/17 32/33/17
f 31/30/18 35/34/18 34/35/18
f 33/32/19 37/36/19 36/37/19
f 35/34/20 39/38/20 38/39/20
f 37/36/21 41/40/21 40/41/21
f 39/38/22 43/42/22 42/43/22
f 41/40/23 45/44/23 44/45/23
f 43/42/24 47/46/24 46/47/24
f 11/10/25 49/48/25 48/49/25
f 45/44/26 51/50/26 50/51/26
f 47/46/27 53/52/27 52/53/27
f 49/48/28 55/54/28 54/55/28
f 51/50/29 57/56/29 56/57/29
f 53/52/30 59/58/30 58/59/30
f 55/54/31 61/60/31 60/61/31
f 57/56/32 1/1/32 62/62/32
f 59/58/33 4/4/33 63/63/33
f 61/60/34 7/7/34 64/64/34
f 1/1/1 2/3/35 62/62/36
f 4/4/2 5/6/37 63/63/38
f 7/7/3 8/9/39 64/64/40
f 3/2/4 10/11/41 2/3/35
f 6/5/5 12/13/42 5/6/37
f 9/8/6 14/15/43 8/9/39
f 13/12/7 16/17/44 12/13/42
f 15/14/8 18/19/12 14/15/43
f 17/16/9 20/21/45 16/17/44
f 22/22/10 18/19/12 19/18/10
f 21/20/13 24/25/46 20/21/45
f 22/22/14 26/27/47 23/23/11
f 25/24/15 28/29/48 24/25/46
f 27/26/16 30/31/49 26/27/47
f 29/28/17 32/33/50 28/29/48
f 31/30/18 34/35/51 30/31/49
f 33/32/19 36/37/52 32/33/50
f 35/34/20 38/39/53 34/35/51
f 37/36/21 40/41/54 36/37/52
f 39/38/22 42/43/55 38/39/53
f 41/40/23 44/45/56 40/41/54
f 43/42/24 46/47/57 42/43/55
f 11/10/25 48/49/58 10/11/41
f 45/44/26 50/51/59 44/45/56
f 47/46/27 52/53/60 46/47/57
f 49/48/28 54/55/61 48/49/58
f 51/50/29 56/57/62 50/51/59
f 53/52/30 58/59/63 52/53/60
f 55/54/31 60/61/64 54/55/61
f 57/56/32 62/62/36 56/57/62
f 59/58/33 63/63/38 58/59/63
f 61/60/34 64/64/40 60/61/64
f 56/57/62 8/9/39 42/43/55
f 20/21/45 24/25/46 28/29/48
f 28/29/48 32/33/50 20/21/45
f 32/33/50 36/37/52 20/21/45
f 36/37/52 40/41/54 44/45/56
f 44/45/56 50/51/59 56/57/62
f 56/57/62 62/62/36 2/3/35
f 2/3/35 10/11/41 56/57/62
f 10/11/41 48/49/58 56/57/62
f 48/49/58 54/55/61 60/61/64
f 60/61/64 64/64/40 48/49/58
f 64/64/40 8/9/39 48/49/58
f 8/9/39 14/15/43 18/19/12
f 18/19/12 23/23/11 8/9/39
f 23/23/11 26/27/47 8/9/39
f 26/27/47 30/31/49 34/35/51
f 34/35/51 38/39/53 26/27/47
f 38/39/53 42/43/55 26/27/47
f 42/43/55 46/47/57 52/53/60
f 52/53/60 58/59/63 42/43/55
f 58/59/63 63/63/38 42/43/55
f 63/63/38 5/6/37 12/13/42
f 12/13/42 16/17/44 63/63/38
f 16/17/44 20/21/45 63/63/38
f 36/37/52 44/45/56 20/21/45
f 44/45/56 56/57/62 20/21/45
f 56/57/62 48/49/58 8/9/39
f 8/9/39 26/27/47 42/43/55
f 42/43/55 63/63/38 20/21/45
f 20/21/45 56/57/62 42/43/55
